<svg width="25" height="24" viewBox="0 0 25 24" fill="none" xmlns="http://www.w3.org/2000/svg">
<path opacity="0.5" d="M21.0355 3.46447C19.5711 2 17.214 2 12.5 2C7.78595 2 5.42893 2 3.96447 3.46447C2.5 4.92893 2.5 7.28595 2.5 12C2.5 16.714 2.5 19.0711 3.96447 20.5355C5.42893 22 7.78595 22 12.5 22C17.214 22 19.5711 22 21.0355 20.5355C22.5 19.0711 22.5 16.714 22.5 12C22.5 7.28595 22.5 4.92893 21.0355 3.46447Z" fill="#94389B"/>
<path d="M16.0787 9.17188C16.0787 8.75765 15.7429 8.42188 15.3287 8.42188H11.0861C10.6719 8.42187 10.3361 8.75765 10.3361 9.17188C10.3361 9.58608 10.6719 9.92186 11.0861 9.92188H13.5181L9.14154 14.2984C8.84865 14.5913 8.84865 15.0662 9.14154 15.3591C9.43444 15.652 9.90931 15.652 10.2022 15.3591L14.5787 10.9825V13.4145C14.5787 13.8287 14.9145 14.1645 15.3287 14.1645C15.7429 14.1645 16.0787 13.8287 16.0787 13.4145V9.17188Z" fill="#94389B"/>
</svg>
