<svg width="426" height="373" viewBox="0 0 426 373" fill="none" xmlns="http://www.w3.org/2000/svg">
<path d="M1.85923 1.88674C41.9748 6.28961 67.1151 16.3124 94.4024 46.1381C119.045 73.0725 134.849 113.372 149.909 146.281C168.555 187.026 218.21 253.953 270.639 236.035C311.348 222.121 323.925 169.381 283.433 146.666C267.823 137.909 245.261 147.878 239.374 164.559C233.015 182.576 244.565 205.876 253.804 220.739C278.617 260.655 330.495 251.9 365.106 275.861C397.441 298.247 405.503 330.821 409.646 368.115C410.001 371.31 418.538 360.954 420.901 358.592C429.562 349.93 427.45 355.506 420.901 362.055C416.689 366.267 409.953 377.44 406.664 369.366C404.29 363.541 396.064 354.534 391.464 349.934" stroke="url(#paint0_linear_73_65)" stroke-width="2" stroke-linecap="round" stroke-dasharray="6 6"/>
<defs>
<linearGradient id="paint0_linear_73_65" x1="422.905" y1="360.905" x2="32.873" y2="-29.127" gradientUnits="userSpaceOnUse">
<stop stop-color="#94389B"/>
<stop offset="1" stop-color="#D756B3" stop-opacity="0.38"/>
</linearGradient>
</defs>
</svg>
