<svg width="74" height="121" viewBox="0 0 74 121" fill="none" xmlns="http://www.w3.org/2000/svg">
<path d="M71.8941 1.52429C72.6846 11.3546 71.4368 17.8497 65.5353 25.772C60.2059 32.9263 51.262 38.5749 44.0573 43.7047C35.1373 50.0559 21.3616 65.0548 28.0761 76.8123C33.2898 85.9417 46.5264 86.5316 50.1134 75.7677C51.4963 71.618 48.0648 66.6625 43.7904 66.0176C39.1736 65.3211 34.1134 69.1659 30.9718 72.0677C22.5347 79.8607 27.0248 91.9082 22.8679 101.318C18.9843 110.109 11.5379 113.544 2.77817 116.256C2.02784 116.488 4.90627 118.06 5.58209 118.518C8.05962 120.198 6.62418 119.948 4.75093 118.678C3.54617 117.861 0.554381 116.759 2.34069 115.597C3.62944 114.76 5.41229 112.371 6.30446 111.055" stroke="url(#paint0_linear_311_348)" stroke-width="2" stroke-linecap="round" stroke-dasharray="6 6"/>
<defs>
<linearGradient id="paint0_linear_311_348" x1="5.11925" y1="119.106" x2="80.7654" y2="7.53937" gradientUnits="userSpaceOnUse">
<stop stop-color="#94389B"/>
<stop offset="1" stop-color="#D756B3" stop-opacity="0.38"/>
</linearGradient>
</defs>
</svg>
