<svg width="25" height="24" viewBox="0 0 25 24" fill="none" xmlns="http://www.w3.org/2000/svg">
<path d="M8 18C8.82843 18 9.5 18.6716 9.5 19.5C9.5 20.3284 8.82843 21 8 21C7.17157 21 6.5 20.3284 6.5 19.5C6.5 18.6716 7.17157 18 8 18Z" fill="white"/>
<path d="M17 18.0001C17.8284 18.0001 18.5 18.6716 18.5 19.5001C18.5 20.3285 17.8284 21.0001 17 21.0001C16.1716 21.0001 15.5 20.3285 15.5 19.5001C15.5 18.6716 16.1716 18.0001 17 18.0001Z" fill="white"/>
<path opacity="0.5" d="M2.58368 2.7512C2.72106 2.36044 3.14921 2.15503 3.53998 2.29242L3.84138 2.39838C4.45791 2.61511 4.98154 2.79919 5.39363 3.00139C5.83426 3.21759 6.21211 3.48393 6.49629 3.89979C6.77827 4.31243 6.89468 4.76515 6.94841 5.26153C6.97247 5.48373 6.98515 5.72967 6.99184 6H17.6301C19.315 6 20.8318 6 21.2757 6.57708C21.7197 7.15417 21.5461 8.02369 21.199 9.76275L20.6992 12.1875C20.3841 13.7164 20.2266 14.4808 19.6748 14.9304C19.1231 15.38 18.3426 15.38 16.7816 15.38H11.4787C8.68979 15.38 7.29534 15.38 6.42894 14.4662C5.56254 13.5523 5.4993 12.5816 5.4993 9.64V7.03832C5.4993 6.29837 5.49828 5.80316 5.45712 5.42295C5.41779 5.0596 5.34809 4.87818 5.25783 4.74609C5.16977 4.61723 5.0361 4.4968 4.73288 4.34802C4.41003 4.18961 3.97128 4.03406 3.30367 3.79934L3.04246 3.7075C2.6517 3.57012 2.44629 3.14197 2.58368 2.7512Z" fill="white"/>
<path d="M14.25 9C14.25 8.58579 13.9142 8.25 13.5 8.25C13.0858 8.25 12.75 8.58579 12.75 9V10.25H11.5C11.0858 10.25 10.75 10.5858 10.75 11C10.75 11.4142 11.0858 11.75 11.5 11.75H12.75V13C12.75 13.4142 13.0858 13.75 13.5 13.75C13.9142 13.75 14.25 13.4142 14.25 13V11.75H15.5C15.9142 11.75 16.25 11.4142 16.25 11C16.25 10.5858 15.9142 10.25 15.5 10.25H14.25V9Z" fill="white"/>
</svg>
