<svg width="21" height="21" viewBox="0 0 21 21" fill="none" xmlns="http://www.w3.org/2000/svg">
<path d="M10.2022 0.521729C4.67938 0.521729 0.202148 4.99896 0.202148 10.5218C0.202148 15.4751 3.80737 19.5773 8.5344 20.3717V12.6081H6.12209V9.81427H8.5344V7.75423C8.5344 5.364 9.99428 4.06146 12.1269 4.06146C13.1482 4.06146 14.026 4.13756 14.2808 4.17108V6.66952L12.8017 6.67023C11.6422 6.67023 11.4186 7.22112 11.4186 8.0298V9.81284H14.1853L13.8245 12.6066H11.4186V20.4385C16.3663 19.8363 20.2021 15.6296 20.2021 10.5189C20.2021 4.99896 15.7249 0.521729 10.2022 0.521729Z" fill="#FFB32F"/>
</svg>
