<svg width="24" height="25" viewBox="0 0 24 25" fill="none" xmlns="http://www.w3.org/2000/svg">
<path d="M12 1.25C9.77497 1.25 7.59989 1.9098 5.74984 3.14597C3.89979 4.38213 2.45785 6.13914 1.60636 8.19481C0.754875 10.2505 0.532087 12.5125 0.966171 14.6948C1.40025 16.8771 2.47171 18.8816 4.04505 20.455C5.61839 22.0283 7.62295 23.0998 9.80524 23.5338C11.9875 23.9679 14.2495 23.7451 16.3052 22.8936C18.3609 22.0422 20.1179 20.6002 21.354 18.7502C22.5902 16.9001 23.25 14.725 23.25 12.5C23.2466 9.51735 22.0603 6.65783 19.9512 4.54878C17.8422 2.43972 14.9827 1.25337 12 1.25ZM12 22.25C10.4513 22.25 8.82975 20.2535 8.025 17H15.975C15.1703 20.2535 13.5488 22.25 12 22.25ZM7.7205 15.5C7.42651 13.5108 7.42651 11.4892 7.7205 9.5H16.2795C16.4283 10.493 16.502 11.4959 16.5 12.5C16.502 13.5041 16.4283 14.507 16.2795 15.5H7.7205ZM2.25001 12.5C2.25055 11.4812 2.41152 10.4688 2.72701 9.5H6.21451C5.9285 11.4898 5.9285 13.5102 6.21451 15.5H2.72701C2.41152 14.5312 2.25055 13.5188 2.25001 12.5ZM12 2.75C13.5488 2.75 15.1703 4.7465 15.975 8H8.025C8.82975 4.7465 10.4513 2.75 12 2.75ZM17.7855 9.5H21.273C21.9088 11.4495 21.9088 13.5505 21.273 15.5H17.7855C17.9277 14.5063 17.9994 13.5038 18 12.5C17.9994 11.4962 17.9277 10.4937 17.7855 9.5ZM20.6408 8H17.5155C17.1817 6.36876 16.5273 4.82006 15.5903 3.44375C17.7639 4.3106 19.5554 5.92683 20.6408 8ZM8.40976 3.44375C7.47268 4.82006 6.81827 6.36876 6.4845 8H3.35926C4.4446 5.92683 6.23615 4.3106 8.40976 3.44375ZM3.35926 17H6.4845C6.81827 18.6312 7.47268 20.1799 8.40976 21.5563C6.23615 20.6894 4.4446 19.0732 3.35926 17ZM15.5903 21.5563C16.5273 20.1799 17.1817 18.6312 17.5155 17H20.6408C19.5554 19.0732 17.7639 20.6894 15.5903 21.5563Z" fill="#94389B"/>
</svg>
