<svg width="24" height="25" viewBox="0 0 24 25" fill="none" xmlns="http://www.w3.org/2000/svg">
<path d="M12 23.1648C11.6583 23.1648 11.3289 23.041 11.0722 22.8162C10.1026 21.9684 9.16789 21.1717 8.34318 20.4689L8.33897 20.4653C5.92107 18.4048 3.83312 16.6254 2.38037 14.8725C0.756407 12.9129 0 11.0549 0 9.02521C0 7.05316 0.676207 5.23383 1.90393 3.9021C3.1463 2.55463 4.851 1.8125 6.70458 1.8125C8.08995 1.8125 9.35869 2.25049 10.4754 3.1142C11.039 3.55017 11.5499 4.08374 12 4.70612C12.4502 4.08374 12.9609 3.55017 13.5247 3.1142C14.6415 2.25049 15.9102 1.8125 17.2956 1.8125C19.149 1.8125 20.8538 2.55463 22.0962 3.9021C23.3239 5.23383 24 7.05316 24 9.02521C24 11.0549 23.2437 12.9129 21.6198 14.8723C20.167 16.6254 18.0793 18.4046 15.6617 20.4649C14.8355 21.1688 13.8993 21.9667 12.9276 22.8165C12.6711 23.041 12.3415 23.1648 12 23.1648ZM6.70458 3.21838C5.24834 3.21838 3.91058 3.79956 2.93737 4.85498C1.9497 5.92633 1.4057 7.40729 1.4057 9.02521C1.4057 10.7323 2.04016 12.259 3.4627 13.9755C4.83764 15.6346 6.88274 17.3774 9.25065 19.3954L9.25505 19.399C10.0829 20.1046 11.0213 20.9044 11.998 21.7584C12.9805 20.9027 13.9204 20.1016 14.7499 19.395C17.1176 17.377 19.1625 15.6346 20.5374 13.9755C21.9598 12.259 22.5943 10.7323 22.5943 9.02521C22.5943 7.40729 22.0503 5.92633 21.0626 4.85498C20.0896 3.79956 18.7516 3.21838 17.2956 3.21838C16.2288 3.21838 15.2494 3.5575 14.3846 4.2262C13.6139 4.82239 13.077 5.57605 12.7622 6.10339C12.6004 6.37457 12.3155 6.53644 12 6.53644C11.6845 6.53644 11.3996 6.37457 11.2377 6.10339C10.9231 5.57605 10.3863 4.82239 9.6154 4.2262C8.75059 3.5575 7.77116 3.21838 6.70458 3.21838Z" fill="#94389B"/>
</svg>
