<svg width="21" height="21" viewBox="0 0 21 21" fill="none" xmlns="http://www.w3.org/2000/svg">
<g clip-path="url(#clip0_73_206)">
<path d="M12.427 10.4802C12.427 11.5374 11.5701 12.3943 10.5129 12.3943C9.45581 12.3943 8.59888 11.5374 8.59888 10.4802C8.59888 9.4231 9.45581 8.56616 10.5129 8.56616C11.5701 8.56616 12.427 9.4231 12.427 10.4802Z" fill="#FFB32F"/>
<path d="M14.9894 7.09366C14.8974 6.84433 14.7506 6.61865 14.5598 6.43341C14.3746 6.24268 14.1491 6.09589 13.8996 6.00388C13.6973 5.92529 13.3933 5.83176 12.8335 5.80627C12.2278 5.77866 12.0463 5.77271 10.5131 5.77271C8.97971 5.77271 8.79813 5.7785 8.19266 5.80612C7.63281 5.83176 7.3287 5.92529 7.12653 6.00388C6.87704 6.09589 6.65137 6.24268 6.46628 6.43341C6.27554 6.61865 6.12875 6.84418 6.03659 7.09366C5.95801 7.29599 5.86447 7.6001 5.83899 8.15994C5.81137 8.76541 5.80542 8.94699 5.80542 10.4803C5.80542 12.0136 5.81137 12.1951 5.83899 12.8008C5.86447 13.3606 5.95801 13.6646 6.03659 13.8669C6.12875 14.1164 6.27539 14.3419 6.46613 14.5271C6.65137 14.7179 6.87689 14.8647 7.12637 14.9567C7.3287 15.0354 7.63281 15.1289 8.19266 15.1544C8.79813 15.182 8.97955 15.1878 10.5129 15.1878C12.0464 15.1878 12.228 15.182 12.8333 15.1544C13.3932 15.1289 13.6973 15.0354 13.8996 14.9567C14.4004 14.7635 14.7962 14.3677 14.9894 13.8669C15.068 13.6646 15.1615 13.3606 15.1871 12.8008C15.2148 12.1951 15.2206 12.0136 15.2206 10.4803C15.2206 8.94699 15.2148 8.76541 15.1871 8.15994C15.1617 7.6001 15.0681 7.29599 14.9894 7.09366ZM10.5131 13.4288C8.88449 13.4288 7.5643 12.1088 7.5643 10.4802C7.5643 8.85162 8.88449 7.53159 10.5131 7.53159C12.1415 7.53159 13.4617 8.85162 13.4617 10.4802C13.4617 12.1088 12.1415 13.4288 10.5131 13.4288ZM13.5782 8.1041C13.1977 8.1041 12.8892 7.79556 12.8892 7.41501C12.8892 7.03445 13.1977 6.72592 13.5782 6.72592C13.9588 6.72592 14.2673 7.03445 14.2673 7.41501C14.2672 7.79556 13.9588 8.1041 13.5782 8.1041Z" fill="#FFB32F"/>
<path d="M10.5132 0.480225C4.99118 0.480225 0.513184 4.95822 0.513184 10.4802C0.513184 16.0022 4.99118 20.4802 10.5132 20.4802C16.0352 20.4802 20.5132 16.0022 20.5132 10.4802C20.5132 4.95822 16.0352 0.480225 10.5132 0.480225ZM16.2207 12.8476C16.193 13.4589 16.0958 13.8762 15.9539 14.2415C15.6555 15.0128 15.0458 15.6226 14.2745 15.9209C13.9093 16.0628 13.4919 16.1599 12.8807 16.1878C12.2684 16.2157 12.0728 16.2224 10.5133 16.2224C8.95374 16.2224 8.75827 16.2157 8.14578 16.1878C7.53467 16.1599 7.11719 16.0628 6.75204 15.9209C6.36874 15.7767 6.02176 15.5507 5.73489 15.2585C5.44284 14.9718 5.21686 14.6247 5.07266 14.2415C4.93076 13.8764 4.83356 13.4589 4.80579 12.8478C4.77756 12.2353 4.771 12.0397 4.771 10.4802C4.771 8.92078 4.77756 8.72516 4.80563 8.11282C4.8334 7.50156 4.93045 7.08423 5.07236 6.71893C5.21655 6.33578 5.44269 5.98865 5.73489 5.70193C6.02161 5.40973 6.36874 5.18375 6.75189 5.03955C7.11719 4.89764 7.53452 4.8006 8.14578 4.77267C8.75812 4.74475 8.95374 4.73804 10.5132 4.73804C12.0726 4.73804 12.2682 4.74475 12.8806 4.77283C13.4919 4.8006 13.9092 4.89764 14.2745 5.0394C14.6576 5.18359 15.0048 5.40973 15.2916 5.70193C15.5837 5.9888 15.8098 6.33578 15.9539 6.71893C16.0959 7.08423 16.193 7.50156 16.2209 8.11282C16.2488 8.72516 16.2554 8.92078 16.2554 10.4802C16.2554 12.0397 16.2488 12.2353 16.2207 12.8476Z" fill="#FFB32F"/>
</g>
<defs>
<clipPath id="clip0_73_206">
<rect width="20" height="20" fill="white" transform="translate(0.513184 0.480225)"/>
</clipPath>
</defs>
</svg>
