<svg width="21" height="21" viewBox="0 0 21 21" fill="none" xmlns="http://www.w3.org/2000/svg">
<path d="M10.8242 0.480225C5.30222 0.480225 0.824219 4.95822 0.824219 10.4802C0.824219 16.0022 5.30222 20.4802 10.8242 20.4802C16.3462 20.4802 20.8242 16.0022 20.8242 10.4802C20.8242 4.95822 16.3462 0.480225 10.8242 0.480225ZM7.91833 15.5974H5.48288V8.27029H7.91833V15.5974ZM6.70068 7.26978H6.68481C5.86755 7.26978 5.33899 6.70718 5.33899 6.00406C5.33899 5.28506 5.88373 4.73804 6.71686 4.73804C7.54999 4.73804 8.06268 5.28506 8.07855 6.00406C8.07855 6.70718 7.54999 7.26978 6.70068 7.26978ZM16.7001 15.5974H14.2649V11.6776C14.2649 10.6925 13.9123 10.0206 13.0311 10.0206C12.3583 10.0206 11.9576 10.4738 11.7816 10.9113C11.7172 11.0678 11.7014 11.2867 11.7014 11.5056V15.5974H9.26614C9.26614 15.5974 9.29803 8.9577 9.26614 8.27029H11.7014V9.30774C12.0251 8.80847 12.6042 8.09833 13.8963 8.09833C15.4986 8.09833 16.7001 9.14554 16.7001 11.3961V15.5974Z" fill="#FFB32F"/>
</svg>
