<svg width="17" height="17" viewBox="0 0 17 17" fill="none" xmlns="http://www.w3.org/2000/svg">
<g clip-path="url(#clip0_73_160)">
<path d="M8.09187 16.2765C8.17805 16.4058 8.32316 16.4834 8.47852 16.4834C8.63387 16.4834 8.77898 16.4058 8.86516 16.2765C9.96487 14.627 11.5847 12.5898 12.7134 10.5179C13.6159 8.86126 14.0547 7.44835 14.0547 6.19849C14.0547 3.12379 11.5532 0.622314 8.47852 0.622314C5.40381 0.622314 2.90234 3.12379 2.90234 6.19849C2.90234 7.44835 3.3411 8.86126 4.24363 10.5179C5.37153 12.5882 6.99442 14.6304 8.09187 16.2765ZM8.47852 1.55168C11.0408 1.55168 13.1253 3.63624 13.1253 6.19849C13.1253 7.28906 12.7236 8.55653 11.8973 10.0733C10.9243 11.8592 9.53594 13.6708 8.47852 15.1937C7.42124 13.671 6.03274 11.8593 5.05973 10.0733C4.23341 8.55653 3.83171 7.28906 3.83171 6.19849C3.83171 3.63624 5.91626 1.55168 8.47852 1.55168Z" fill="#FFB32F"/>
<path d="M8.47852 8.98633C10.0159 8.98633 11.2666 7.73559 11.2666 6.19824C11.2666 4.66089 10.0159 3.41016 8.47852 3.41016C6.94116 3.41016 5.69043 4.66089 5.69043 6.19824C5.69043 7.73559 6.94116 8.98633 8.47852 8.98633ZM8.47852 4.33952C9.50342 4.33952 10.3372 5.17334 10.3372 6.19824C10.3372 7.22314 9.50342 8.05697 8.47852 8.05697C7.45362 8.05697 6.61979 7.22314 6.61979 6.19824C6.61979 5.17334 7.45362 4.33952 8.47852 4.33952Z" fill="#FFB32F"/>
</g>
<defs>
<clipPath id="clip0_73_160">
<rect width="15.8611" height="15.8611" fill="white" transform="translate(0.547852 0.622559)"/>
</clipPath>
</defs>
</svg>
