<svg width="17" height="17" viewBox="0 0 17 17" fill="none" xmlns="http://www.w3.org/2000/svg">
<g clip-path="url(#clip0_73_181)">
<path d="M15.0149 2.66602H1.94189C1.17167 2.66602 0.547852 3.29371 0.547852 4.06006V12.4243C0.547852 13.1952 1.17626 13.8184 1.94189 13.8184H15.0149C15.7787 13.8184 16.409 13.1979 16.409 12.4243V4.06006C16.409 3.29507 15.7876 2.66602 15.0149 2.66602ZM14.8197 3.59538C14.5349 3.87868 9.63339 8.75436 9.46415 8.9227C9.20083 9.18602 8.85077 9.331 8.47841 9.331C8.10604 9.331 7.75598 9.18599 7.4918 8.92183C7.37798 8.8086 2.53058 3.98676 2.13712 3.59538H14.8197ZM1.47721 12.2352V4.2498L5.49323 8.24467L1.47721 12.2352ZM2.13771 12.889L6.15215 8.90008L6.83551 9.57985C7.27436 10.0187 7.85781 10.2604 8.47841 10.2604C9.099 10.2604 9.68246 10.0187 10.1204 9.58072L10.8047 8.90008L14.8191 12.889H2.13771ZM15.4796 12.2352L11.4636 8.24467L15.4796 4.2498V12.2352Z" fill="#FFB32F"/>
</g>
<defs>
<clipPath id="clip0_73_181">
<rect width="15.8611" height="15.8611" fill="white" transform="translate(0.547852 0.311523)"/>
</clipPath>
</defs>
</svg>
