<svg width="24" height="24" viewBox="0 0 24 24" fill="none" xmlns="http://www.w3.org/2000/svg">
<path d="M20.0645 3H3.93548C2.87097 3 2 3.9 2 5C2 6.1 2.87097 7 3.93548 7H20.0645C21.129 7 22 6.1 22 5C22 3.9 21.129 3 20.0645 3Z" fill="#94389B"/>
<path d="M20.0645 10H3.93548C2.87097 10 2 10.9 2 12C2 13.1 2.87097 14 3.93548 14H20.0645C21.129 14 22 13.1 22 12C22 10.9 21.129 10 20.0645 10Z" fill="#94389B"/>
<path d="M20.0645 16H3.93548C2.87097 16 2 16.9 2 18C2 19.1 2.87097 20 3.93548 20H20.0645C21.129 20 22 19.1 22 18C22 16.9 21.129 16 20.0645 16Z" fill="#94389B"/>
</svg>
