<svg width="24" height="25" viewBox="0 0 24 25" fill="none" xmlns="http://www.w3.org/2000/svg">
<path d="M23.7267 22.9071L17.8695 17.0501C19.3254 15.2993 20.2025 13.0512 20.2025 10.6016C20.2025 5.03154 15.6711 0.5 10.1013 0.5C4.53141 0.5 0 5.03154 0 10.6016C0 16.1712 4.53141 20.7024 10.1013 20.7024C12.5508 20.7024 14.7991 19.8254 16.5498 18.3695L22.4071 24.2267C22.5893 24.4089 22.8281 24.5 23.0669 24.5C23.3056 24.5 23.5445 24.4089 23.7268 24.2267C24.0912 23.8623 24.0912 23.2715 23.7267 22.9071ZM1.86621 10.6016C1.86621 6.06057 5.56044 2.36621 10.1013 2.36621C14.6421 2.36621 18.3362 6.06057 18.3362 10.6016C18.3362 15.1422 14.6421 18.8362 10.1013 18.8362C5.56044 18.8362 1.86621 15.1422 1.86621 10.6016Z" fill="#94389B"/>
</svg>
