<svg width="24" height="25" viewBox="0 0 24 25" fill="none" xmlns="http://www.w3.org/2000/svg">
<g clip-path="url(#clip0_73_22)">
<path d="M23.8615 5.51427C23.7241 5.31738 23.503 5.19567 23.2629 5.18541L8.37549 4.5437C7.94834 4.52501 7.59139 4.85478 7.57313 5.27994C7.55498 5.70494 7.88421 6.06404 8.30932 6.0823L22.1888 6.68062L19.4598 15.1953H7.31543L5.12137 3.24878C5.07314 2.98695 4.89338 2.76851 4.64546 2.67124L1.05195 1.2595C0.655903 1.10445 0.208991 1.29898 0.0534498 1.69455C-0.101823 2.09033 0.0926573 2.53751 0.488492 2.69305L3.68369 3.94828L5.91648 16.1045C5.98378 16.4699 6.30227 16.7354 6.67399 16.7354H7.04437L6.19861 19.0846C6.12782 19.2814 6.15699 19.4999 6.27746 19.6709C6.39776 19.8419 6.59343 19.9436 6.8023 19.9436H7.39551C7.02793 20.3527 6.8023 20.8914 6.8023 21.4837C6.8023 22.7576 7.83883 23.7938 9.11243 23.7938C10.386 23.7938 11.4226 22.7576 11.4226 21.4837C11.4226 20.8914 11.1969 20.3527 10.8294 19.9436H15.8661C15.4983 20.3527 15.2727 20.8914 15.2727 21.4837C15.2727 22.7576 16.309 23.7938 17.5829 23.7938C18.8568 23.7938 19.893 22.7576 19.893 21.4837C19.893 20.8914 19.6674 20.3527 19.2999 19.9436H20.0214C20.3758 19.9436 20.6631 19.6563 20.6631 19.3019C20.6631 18.9475 20.3758 18.6602 20.0214 18.6602H7.71535L8.4083 16.7351H20.0213C20.3562 16.7351 20.6525 16.5188 20.7545 16.2002L23.963 6.18956C24.0367 5.96108 23.9989 5.71128 23.8615 5.51427ZM9.11248 22.5107C8.54623 22.5107 8.08573 22.0502 8.08573 21.484C8.08573 20.9177 8.54623 20.4572 9.11248 20.4572C9.67874 20.4572 10.1392 20.9177 10.1392 21.484C10.1392 22.0502 9.67874 22.5107 9.11248 22.5107ZM17.5829 22.5107C17.0166 22.5107 16.5562 22.0502 16.5562 21.484C16.5562 20.9177 17.0166 20.4572 17.5829 20.4572C18.1491 20.4572 18.6096 20.9177 18.6096 21.484C18.6096 22.0502 18.1491 22.5107 17.5829 22.5107Z" fill="#94389B"/>
</g>
<defs>
<clipPath id="clip0_73_22">
<rect width="24" height="24" fill="white" transform="translate(0 0.5)"/>
</clipPath>
</defs>
</svg>
