<svg width="17" height="17" viewBox="0 0 17 17" fill="none" xmlns="http://www.w3.org/2000/svg">
<g clip-path="url(#clip0_73_166)">
<path d="M14.5875 12.9342L12.2739 10.6206C11.7923 10.1391 11.0115 10.1386 10.5294 10.6206L9.8556 11.2944C8.31608 10.3543 7.02265 9.06083 6.08245 7.52128L6.82123 6.78253C7.30214 6.30156 7.30214 5.51894 6.8212 5.03797L4.50765 2.72441C4.02741 2.24424 3.24771 2.23978 2.76165 2.72587L1.30782 4.19101C0.612224 4.77508 0.367554 5.73406 0.684776 6.64294C2.31259 11.3076 6.06931 15.0643 10.734 16.6921C11.6116 16.9983 12.5128 16.7693 13.0858 16.179C13.0941 16.1717 13.1022 16.1641 13.1101 16.1562L14.5875 14.6788C15.0685 14.1978 15.0685 13.4152 14.5875 12.9342ZM13.8505 13.9418L12.4065 15.3858C12.3889 15.4004 12.3722 15.4163 12.3565 15.4333C12.0526 15.7637 11.5637 15.8778 11.0774 15.708C6.71011 14.184 3.19294 10.6668 1.66891 6.29945C1.49441 5.79942 1.6203 5.28137 1.98966 4.9796C2.0037 4.96814 2.01714 4.95593 2.0299 4.94308L3.50012 3.4614C3.54885 3.41264 3.60582 3.40536 3.63541 3.40536C3.66502 3.40536 3.72193 3.41261 3.77069 3.4614L6.08418 5.77495C6.15878 5.84955 6.15878 5.97089 6.08422 6.04549L5.06059 7.06912C4.89513 7.23454 4.86021 7.4899 4.97515 7.69368C6.08598 9.66297 7.71394 11.291 9.68323 12.4017C9.88698 12.5167 10.1423 12.4817 10.3078 12.3163L11.2664 11.3577C11.3411 11.2831 11.4622 11.283 11.537 11.3577L13.8505 13.6712C13.9251 13.7458 13.9251 13.8672 13.8505 13.9418Z" fill="#FFB32F"/>
<path d="M8.87809 5.03589C8.59027 5.03589 8.35693 5.26922 8.35693 5.55704C8.35693 5.84487 8.59023 6.0782 8.87809 6.0782C10.2128 6.0782 11.2987 7.1641 11.2987 8.49885C11.2987 8.78667 11.5321 9.02 11.8199 9.02C12.1077 9.02 12.341 8.78667 12.341 8.49885C12.341 6.58938 10.7876 5.03589 8.87809 5.03589Z" fill="#FFB32F"/>
<path d="M8.87809 2.99023C8.59027 2.99023 8.35693 3.22357 8.35693 3.51139C8.35693 3.79921 8.59023 4.03254 8.87809 4.03254C11.3407 4.03254 13.3442 6.03603 13.3442 8.49866C13.3442 8.78648 13.5775 9.01981 13.8654 9.01981C14.1532 9.01981 14.3865 8.78648 14.3865 8.49866C14.3865 5.46132 11.9154 2.99023 8.87809 2.99023Z" fill="#FFB32F"/>
<path d="M14.2033 3.17373C12.7809 1.75135 10.8897 0.968018 8.87809 0.968018C8.59027 0.968018 8.35693 1.20135 8.35693 1.48917C8.35693 1.777 8.59027 2.01033 8.87809 2.01033C12.4559 2.01033 15.3667 4.92109 15.3667 8.49892C15.3667 8.78674 15.6 9.02007 15.8879 9.02007C16.1757 9.02007 16.409 8.78674 16.409 8.49892C16.409 6.48731 15.6257 4.59615 14.2033 3.17373Z" fill="#FFB32F"/>
</g>
<defs>
<clipPath id="clip0_73_166">
<rect width="15.8611" height="15.8611" fill="white" transform="translate(0.547852 0.967041)"/>
</clipPath>
</defs>
</svg>
