<svg width="24" height="25" viewBox="0 0 24 25" fill="none" xmlns="http://www.w3.org/2000/svg">
<g clip-path="url(#clip0_73_17)">
<path d="M11.829 12.0609C13.4172 12.0609 14.7924 11.4913 15.9163 10.3674C17.0398 9.24364 17.6096 7.8687 17.6096 6.28026C17.6096 4.69237 17.04 3.31726 15.9161 2.19317C14.7922 1.06964 13.4171 0.5 11.829 0.5C10.2405 0.5 8.8656 1.06964 7.74188 2.19336C6.61816 3.31707 6.04834 4.69219 6.04834 6.28026C6.04834 7.8687 6.61816 9.24382 7.74188 10.3675C8.86597 11.4911 10.2411 12.0609 11.829 12.0609ZM8.73651 3.1878C9.59875 2.32556 10.6102 1.90643 11.829 1.90643C13.0475 1.90643 14.0592 2.32556 14.9216 3.1878C15.7839 4.05023 16.2032 5.06188 16.2032 6.28026C16.2032 7.49901 15.7839 8.51048 14.9216 9.37291C14.0592 10.2353 13.0475 10.6545 11.829 10.6545C10.6106 10.6545 9.59912 10.2352 8.73651 9.37291C7.87408 8.51067 7.45477 7.49901 7.45477 6.28026C7.45477 5.06188 7.87408 4.05023 8.73651 3.1878Z" fill="white"/>
<path d="M21.9435 18.9548C21.9111 18.4871 21.8456 17.977 21.7491 17.4383C21.6517 16.8956 21.5262 16.3825 21.3761 15.9136C21.2208 15.4289 21.0101 14.9503 20.7491 14.4916C20.4787 14.0155 20.1608 13.6009 19.8041 13.2598C19.4312 12.903 18.9745 12.616 18.4464 12.4067C17.9202 12.1985 17.337 12.0931 16.7131 12.0931C16.4681 12.0931 16.2312 12.1936 15.7736 12.4915C15.492 12.6752 15.1626 12.8876 14.7949 13.1225C14.4805 13.3228 14.0546 13.5105 13.5286 13.6804C13.0153 13.8465 12.4942 13.9307 11.9797 13.9307C11.4655 13.9307 10.9444 13.8465 10.4308 13.6804C9.90527 13.5107 9.47919 13.323 9.16534 13.1227C8.80115 12.89 8.47156 12.6776 8.18573 12.4913C7.72852 12.1934 7.49158 12.0929 7.24658 12.0929C6.62256 12.0929 6.03955 12.1985 5.51349 12.4069C4.98578 12.6158 4.52893 12.9028 4.15558 13.26C3.79889 13.6013 3.48102 14.0157 3.21075 14.4916C2.9502 14.9503 2.73926 15.4287 2.58398 15.9137C2.43402 16.3827 2.30859 16.8956 2.21118 17.4383C2.1145 17.9762 2.04913 18.4866 2.01672 18.9553C1.98486 19.4136 1.96875 19.8906 1.96875 20.3725C1.96875 21.6253 2.367 22.6396 3.15234 23.3876C3.92798 24.1256 4.9541 24.4999 6.20233 24.4999H17.7585C19.0063 24.4999 20.0325 24.1256 20.8083 23.3876C21.5938 22.6401 21.9921 21.6255 21.9921 20.3724C21.9919 19.8888 21.9756 19.4118 21.9435 18.9548ZM19.8386 22.3686C19.326 22.8564 18.6456 23.0935 17.7583 23.0935H6.20233C5.31482 23.0935 4.6344 22.8564 4.12207 22.3688C3.61945 21.8903 3.37518 21.2372 3.37518 20.3725C3.37518 19.9228 3.39001 19.4788 3.41968 19.0525C3.44861 18.6343 3.50775 18.1749 3.59546 17.6868C3.68207 17.2046 3.7923 16.7522 3.9234 16.3426C4.04919 15.9498 4.22076 15.5609 4.43353 15.1863C4.6366 14.8292 4.87024 14.5229 5.12805 14.2761C5.3692 14.0452 5.67316 13.8562 6.03131 13.7145C6.36255 13.5834 6.7348 13.5116 7.13892 13.5008C7.18817 13.527 7.27588 13.577 7.41797 13.6696C7.70709 13.858 8.04034 14.073 8.40875 14.3083C8.82404 14.5731 9.35907 14.8122 9.99829 15.0185C10.6518 15.2299 11.3183 15.3372 11.9799 15.3372C12.6414 15.3372 13.3081 15.2299 13.9612 15.0187C14.601 14.812 15.1359 14.5731 15.5517 14.3079C15.9287 14.067 16.2526 13.8582 16.5417 13.6696C16.6838 13.5771 16.7715 13.527 16.8208 13.5008C17.2251 13.5116 17.5974 13.5834 17.9288 13.7145C18.2867 13.8562 18.5907 14.0453 18.8318 14.2761C19.0897 14.5227 19.3233 14.829 19.5264 15.1865C19.7393 15.5609 19.9111 15.95 20.0367 16.3424C20.168 16.7526 20.2784 17.2048 20.3648 17.6866C20.4523 18.1756 20.5117 18.6352 20.5406 19.0527V19.0531C20.5704 19.4777 20.5854 19.9216 20.5856 20.3725C20.5854 21.2373 20.3412 21.8903 19.8386 22.3686Z" fill="white"/>
</g>
<defs>
<clipPath id="clip0_73_17">
<rect width="24" height="24" fill="white" transform="translate(0 0.5)"/>
</clipPath>
</defs>
</svg>
